<svg preserveAspectRatio="none" width="100%" height="100%" overflow="visible" style="display: block;" viewBox="0 0 520 82.3465" fill="none" xmlns="http://www.w3.org/2000/svg">
<g id="&#236;&#151;&#144;&#236;&#132;&#188;&#236;&#133;&#156; &#236;&#155;&#168;&#235;&#148;&#169; &#237;&#140;&#168;&#237;&#130;&#164;&#236;&#167;&#128;">
<path id="Vector" d="M486.53 40.642C486.53 44.9511 486.796 48.9061 487.327 52.5069C487.858 56.0487 489.068 59.7381 490.957 63.575C492.846 67.412 495.65 71.0718 499.369 74.5546L492.286 81.1068C489.688 78.3915 487.534 75.6761 485.822 72.9607C484.169 70.2454 482.752 67.3234 481.572 64.1948C480.273 67.3234 478.738 70.2159 476.967 72.8722C475.255 75.5876 473.101 78.3325 470.504 81.1068L463.509 74.8202C467.464 70.8652 470.415 66.8217 472.363 62.6896C474.311 58.4985 475.551 54.573 476.082 50.9131C476.613 47.2533 476.879 43.1507 476.879 38.6054V35.1522V9.38573H465.988V0.973996H496.978V9.38573H486.53V35.1522V40.642ZM510.437 82.3465V0H520V82.3465H510.437Z" fill="var(--fill-0, white)"/>
<path id="Vector_2" d="M403.636 75.9713C409.716 69.2419 414.173 62.7781 417.006 56.58C419.84 50.3228 421.64 43.9181 422.407 37.3658H403.813V28.777H422.939V24.5269V16.0266V9.56282H403.459V0.885446H432.502V17.7975C432.502 28.0686 431.941 36.5394 430.819 43.2098C429.757 49.8211 427.691 56.1373 424.621 62.1583C421.552 68.1203 416.947 74.7021 410.808 81.9038L403.636 75.9713ZM448.882 82.3465V0H458.445V82.3465H448.882Z" fill="var(--fill-0, white)"/>
<path id="Vector_3" d="M370.591 81.3725H341.283V72.6951H344.913V12.3962H354.476V72.6951H357.31V12.3962H366.872V72.6951H370.591V81.3725ZM341.283 0.973996H370.149V9.56282H341.283V0.973996ZM382.279 0V28.6885H387.415V0H397.066V82.3465H387.415V37.2773H382.279V82.3465H372.716V0H382.279Z" fill="var(--fill-0, white)"/>
<path id="Vector_4" d="M264.833 40.1107V0.973996H294.584V9.38573H274.396V31.699H294.761V40.1107H264.833ZM307.512 0H317.075V42.3243H307.512V0ZM299.1 47.1943C302.524 47.1943 305.623 47.9321 308.397 49.4079C311.172 50.8836 313.326 52.9497 314.861 55.606C316.455 58.2623 317.252 61.3024 317.252 64.7261C317.252 68.2089 316.455 71.2784 314.861 73.9347C313.326 76.5911 311.172 78.6571 308.397 80.1329C305.682 81.6086 302.583 82.3465 299.1 82.3465H284.844C281.362 82.3465 278.233 81.6086 275.459 80.1329C272.743 78.6571 270.589 76.5911 268.995 73.9347C267.46 71.2784 266.693 68.2089 266.693 64.7261C266.693 61.3024 267.46 58.2623 268.995 55.606C270.589 52.9497 272.743 50.8836 275.459 49.4079C278.233 47.9321 281.362 47.1943 284.844 47.1943H299.1ZM299.454 73.9347C301.697 73.9347 303.616 73.0788 305.21 71.3669C306.863 69.6551 307.689 67.4415 307.689 64.7261C307.689 61.9517 306.892 59.7381 305.298 58.0853C303.704 56.4324 301.756 55.606 299.454 55.606H284.49C282.188 55.606 280.24 56.4324 278.646 58.0853C277.053 59.7381 276.256 61.9517 276.256 64.7261C276.256 67.4415 277.053 69.6551 278.646 71.3669C280.299 73.0788 282.247 73.9347 284.49 73.9347H299.454Z" fill="var(--fill-0, white)"/>
<path id="Vector_5" d="M231.701 50.8246H221.252V81.461H211.69V50.8246H201.064V42.4129H231.701V50.8246ZM234.534 58.528V0H244.097V82.3465H234.534V67.1168H225.06V58.528H234.534ZM247.727 0H257.379V82.3465H247.727V0ZM220.101 16.912C220.101 14.4918 220.072 12.898 220.013 12.1306C219.954 11.3632 219.629 10.6549 219.039 10.0055C218.449 9.35621 217.445 9.03155 216.028 9.03155C214.612 9.03155 213.608 9.35621 213.018 10.0055C212.427 10.6549 212.103 11.3632 212.044 12.1306C211.985 12.898 211.955 14.4918 211.955 16.912V21.4278C211.955 23.848 211.985 25.4418 212.044 26.2092C212.103 26.9766 212.427 27.6849 213.018 28.3343C213.608 28.9836 214.612 29.3083 216.028 29.3083C217.445 29.3083 218.449 28.9836 219.039 28.3343C219.629 27.6849 219.954 26.9766 220.013 26.2092C220.072 25.4418 220.101 23.848 220.101 21.4278V16.912ZM202.392 15.4068C202.392 10.5073 203.484 6.81794 205.669 4.33869C207.853 1.80041 211.306 0.531266 216.028 0.531266C220.751 0.531266 224.204 1.80041 226.388 4.33869C228.572 6.81794 229.664 10.5073 229.664 15.4068V22.933C229.664 27.8325 228.572 31.5514 226.388 34.0897C224.204 36.5689 220.751 37.8085 216.028 37.8085C211.306 37.8085 207.853 36.5689 205.669 34.0897C203.484 31.5514 202.392 27.8325 202.392 22.933V15.4068Z" fill="var(--fill-0, white)"/>
<path id="Vector_6" d="M176.768 82.3465H128.157V57.6425H167.117V50.6475H128.157V42.2358H176.679V66.0543H137.72V73.9347H176.768V82.3465ZM143.298 8.58883C143.298 11.5403 143.505 13.9605 143.918 15.8495C144.39 17.7384 145.512 19.893 147.283 22.3132C149.113 24.7335 152.005 27.5964 155.96 30.9021L149.142 37.72C146.604 35.2998 144.479 33.1747 142.767 31.3448C141.114 29.4558 139.638 27.4783 138.34 25.4123C137.1 27.3603 135.683 29.1902 134.089 30.9021C132.496 32.5549 130.193 34.8275 127.183 37.72L120.365 30.9021C124.379 27.5374 127.331 24.6449 129.22 22.2247C131.108 19.8045 132.319 17.6204 132.85 15.6724C133.381 13.7244 133.647 11.3632 133.647 8.58883V1.06254H143.298V8.58883ZM167.117 29.0426H156.314V20.4538H167.117V14.8755H156.314V6.28667H167.117V0H176.679V37.0116H167.117V29.0426Z" fill="var(--fill-0, white)"/>
<path id="Vector_7" d="M117.251 82.3465H68.5519V51.4444H78.1148V73.9347H117.251V82.3465ZM81.7451 18.5944C81.7451 21.0146 81.9517 23.1397 82.3649 24.9696C82.8371 26.7995 83.8702 28.836 85.464 31.0792C87.1168 33.3223 89.596 35.831 92.9017 38.6054V25.7665H86.615V17.1777H92.9017V0H102.465V48.3453H92.9017V38.9596L86.2609 45.6005C83.6636 43.1212 81.7156 41.1437 80.4169 39.668C79.1773 38.1922 77.9672 36.3623 76.7866 34.1782C75.7831 36.0081 74.691 37.6019 73.5104 38.9596C72.3889 40.2583 70.7656 41.9111 68.6405 43.9181L66.9581 45.6005L60.1402 38.7825C64.0362 35.5359 66.8401 32.673 68.5519 30.1937C70.2638 27.6554 71.2673 25.4418 71.5625 23.5529C71.9166 21.6049 72.0937 18.9485 72.0937 15.5838V1.06254H81.7451V15.5838V18.5944ZM116.366 0V48.3453H106.715V0H116.366Z" fill="var(--fill-0, white)"/>
<path id="Vector_8" d="M15.8495 13.99C15.8495 12.2192 15.6429 10.95 15.2297 10.1826C14.8755 9.35622 14.0491 8.94301 12.7504 8.94301C11.3927 8.94301 10.5073 9.3267 10.0941 10.0941C9.73991 10.8615 9.56282 12.1306 9.56282 13.9015V16.8235V65.3459V68.2679C9.56282 70.0388 9.73991 71.3079 10.0941 72.0753C10.5073 72.8427 11.3927 73.2264 12.7504 73.2264C14.0491 73.2264 14.8755 72.8132 15.2297 71.9868C15.6429 71.2194 15.8495 69.9502 15.8495 68.1793V65.3459V16.8235V13.99ZM0 16.2037C0 11.1271 0.944476 7.23114 2.83343 4.51578C4.78141 1.80041 8.08707 0.442723 12.7504 0.442723C17.4138 0.442723 20.6899 1.80041 22.5789 4.51578C24.4678 7.23114 25.4123 11.1271 25.4123 16.2037V65.9657C25.4123 71.0423 24.4678 74.9382 22.5789 77.6536C20.6899 80.369 17.4138 81.7267 12.7504 81.7267C8.08707 81.7267 4.78141 80.369 2.83343 77.6536C0.944476 74.9382 0 71.0423 0 65.9657V16.2037ZM41.3503 0V82.3465H32.1417V37.2773H27.0061V28.6885H32.1417V0H41.3503ZM45.4234 0H54.7206V82.3465H45.4234V0Z" fill="var(--fill-0, white)"/>
</g>
</svg>
