<svg preserveAspectRatio="none" width="100%" height="100%" overflow="visible" style="display: block;" viewBox="0 0 578.001 82.0002" fill="none" xmlns="http://www.w3.org/2000/svg">
<g id="&#234;&#179;&#181;&#234;&#176;&#132; &#235;&#166;&#172;&#237;&#148;&#132;&#235;&#160;&#136;&#236;&#139;&#156; &#237;&#140;&#168;&#237;&#130;&#164;&#236;&#167;&#128;">
<path id="Vector" d="M544.673 40.4707C544.673 44.7617 544.937 48.7 545.466 52.2857C545.995 55.8125 547.2 59.4863 549.081 63.307C550.962 67.1278 553.754 70.7722 557.457 74.2402L550.404 80.7649C547.817 78.061 545.672 75.3571 543.967 72.6532C542.321 69.9492 540.911 67.0396 539.735 63.9242C538.442 67.0396 536.914 69.9199 535.15 72.565C533.445 75.2689 531.3 78.0022 528.714 80.7649L521.748 74.5048C525.686 70.5665 528.625 66.54 530.565 62.4253C532.505 58.2519 533.739 54.343 534.268 50.6986C534.797 47.0542 535.062 42.9689 535.062 38.4428V35.0041V9.34636H524.217V0.970121H555.077V9.34636H544.673V35.0041V40.4707ZM568.479 81.9993V0.000236511H578.001V81.9993H568.479Z" fill="var(--fill-0, white)"/>
<path id="Vector_2" d="M462.237 75.651C468.291 68.95 472.729 62.5135 475.551 56.3415C478.372 50.1108 480.165 43.7331 480.929 37.2084H462.413V28.6558H481.458V24.4236V15.9592V9.52271H462.06V0.881946H490.981V17.7226C490.981 27.9505 490.422 36.3855 489.305 43.0277C488.247 49.6111 486.19 55.9007 483.133 61.8963C480.077 67.8331 475.492 74.3872 469.379 81.5584L462.237 75.651ZM507.292 81.9993V0.000236511H516.815V81.9993H507.292Z" fill="var(--fill-0, white)"/>
<path id="Vector_3" d="M429.443 81.0294H400.258V72.3887H403.873V12.3442H413.395V72.3887H416.217V12.3442H425.739V72.3887H429.443V81.0294ZM400.258 0.970121H429.002V9.52271H400.258V0.970121ZM441.081 0.000236511V28.5677H446.195V0.000236511H455.806V81.9993H446.195V37.1202H441.081V81.9993H431.559V0.000236511H441.081Z" fill="var(--fill-0, white)"/>
<path id="Vector_4" d="M343.133 40.4707C343.133 44.7617 343.398 48.7 343.927 52.2857C344.456 55.8125 345.661 59.4863 347.542 63.307C349.423 67.1278 352.215 70.7722 355.918 74.2402L348.864 80.7649C346.278 78.061 344.132 75.3571 342.428 72.6532C340.782 69.9492 339.371 67.0396 338.196 63.9242C336.902 67.0396 335.374 69.9199 333.611 72.565C331.906 75.2689 329.761 78.0022 327.174 80.7649L320.209 74.5048C324.147 70.5665 327.086 66.54 329.026 62.4253C330.966 58.2519 332.2 54.343 332.729 50.6986C333.258 47.0542 333.523 42.9689 333.523 38.4428V35.0041V1.05829H343.133V35.0041V40.4707ZM366.939 81.9993V0.000236511H376.462V81.9993H366.939Z" fill="var(--fill-0, white)"/>
<path id="Vector_5" d="M273.482 36.7676V72.4768H288.295V81.0294H264.048V28.3913H277.979V9.34636H264.048V0.970121H287.413V36.7676H273.482ZM303.02 0.000236511V81.9993H293.85V36.8557H289.706V28.3031H293.85V0.000236511H303.02ZM307.076 0.000236511H316.333V81.9993H307.076V0.000236511Z" fill="var(--fill-0, white)"/>
<path id="Vector_6" d="M243.421 41.7943H251.973V50.435H204.537V41.7943H213.09V11.9924H222.524V41.7943H233.987V11.9924H243.421V41.7943ZM205.419 0.971065H251.092V9.52365H205.419V0.971065ZM255.853 80.9422H200.658V72.5659H255.853V80.9422Z" fill="var(--fill-0, white)"/>
<path id="Vector_7" d="M151.111 36.7676V72.6532H171.214V81.0294H141.676V28.3913H160.898V9.34636H141.676V0.970121H170.332V36.7676H151.111ZM184.263 81.9993V0.000236511H193.785V81.9993H184.263Z" fill="var(--fill-0, white)"/>
<path id="Vector_8" d="M112.061 81.9993H63.5664V51.2276H73.0889V73.623H112.061V81.9993ZM60.0396 38.2665C66.8582 34.1518 71.7957 30.2429 74.8523 26.5397C77.9677 22.7778 79.5254 18.5455 79.5254 13.8431V10.2281H61.0095V1.85183H89.0479V11.8152C89.0479 19.2215 86.9318 25.5992 82.6996 30.9483C78.5261 36.2973 72.6775 41.1761 65.1535 45.5847L60.0396 38.2665ZM101.568 0.000236511H111.091V17.1054H120.525V25.658H111.091V50.1695H101.568V0.000236511Z" fill="var(--fill-0, white)"/>
<path id="Vector_9" d="M34.2985 52.8156C39.3537 52.8156 43.4389 53.9912 46.5543 56.3425C49.7285 58.6937 51.3155 62.3675 51.3155 67.3639C51.3155 72.3602 49.7285 76.034 46.5543 78.3852C43.4389 80.7952 39.3537 82.0002 34.2985 82.0002H20.8084C15.7532 82.0002 11.668 80.7952 8.55259 78.3852C5.43721 76.034 3.87953 72.3602 3.87953 67.3639C3.87953 62.3087 5.43721 58.6349 8.55259 56.3425C11.668 53.9912 15.7532 52.8156 20.8084 52.8156H34.2985ZM33.7695 73.624C36.4146 73.624 38.4132 73.1831 39.7651 72.3014C41.1171 71.4785 41.7931 69.8326 41.7931 67.3639C41.7931 64.8951 41.1171 63.2492 39.7651 62.4263C38.472 61.6033 36.4734 61.1919 33.7695 61.1919H21.3374C18.6335 61.1919 16.6349 61.6033 15.3418 62.4263C14.0486 63.2492 13.402 64.8951 13.402 67.3639C13.402 69.8326 14.0486 71.4785 15.3418 72.3014C16.6937 73.1831 18.6923 73.624 21.3374 73.624H33.7695ZM55.1951 43.6458H0V35.8868H19.3976V18.958H28.9201V35.8868H55.1951V43.6458ZM40.4705 9.34731H5.37843V0.971065H49.9048V28.1277H40.4705V9.34731Z" fill="var(--fill-0, white)"/>
</g>
</svg>
