<svg preserveAspectRatio="none" width="100%" height="100%" overflow="visible" style="display: block;" viewBox="0 0 574.701 82.0001" fill="none" xmlns="http://www.w3.org/2000/svg">
<g id="&#237;&#148;&#132;&#235;&#166;&#172;&#235;&#175;&#184;&#236;&#151;&#132; &#236;&#155;&#168;&#235;&#148;&#169; &#237;&#140;&#168;&#237;&#130;&#164;&#236;&#167;&#128;">
<path id="Vector" d="M541.372 40.471C541.372 44.7621 541.636 48.7004 542.165 52.2861C542.694 55.813 543.899 59.4868 545.78 63.3076C547.661 67.1284 550.454 70.7728 554.157 74.2409L547.103 80.7657C544.517 78.0617 542.371 75.3578 540.666 72.6538C539.021 69.9499 537.61 67.0402 536.434 63.9248C535.141 67.0402 533.613 69.9205 531.849 72.5657C530.145 75.2696 527.999 78.0029 525.413 80.7657L518.447 74.5055C522.385 70.5671 525.325 66.5406 527.264 62.4259C529.204 58.2524 530.439 54.3434 530.968 50.699C531.497 47.0546 531.761 42.9693 531.761 38.4431V35.0044V9.34632H520.916V0.969975H551.776V9.34632H541.372V35.0044V40.471ZM565.178 82.0001V8.01086e-05H574.701V82.0001H565.178Z" fill="var(--fill-0, white)"/>
<path id="Vector_2" d="M459.267 75.6517C465.322 68.9506 469.76 62.5141 472.581 56.342C475.403 50.1112 477.196 43.7334 477.96 37.2087H459.444V28.656H478.489V24.4237V15.9592V9.52266H459.091V0.881798H488.011V17.7227C488.011 27.9506 487.453 36.3857 486.336 43.028C485.278 49.6115 483.221 55.9012 480.164 61.8969C477.108 67.8338 472.523 74.3879 466.409 81.5592L459.267 75.6517ZM504.323 82.0001V8.01086e-05H513.846V82.0001H504.323Z" fill="var(--fill-0, white)"/>
<path id="Vector_3" d="M426.803 81.0302H397.618V72.3893H401.233V12.3442H410.755V72.3893H413.577V12.3442H423.099V72.3893H426.803V81.0302ZM397.618 0.969975H426.362V9.52266H397.618V0.969975ZM438.441 8.01086e-05V28.5678H443.555V8.01086e-05H453.166V82.0001H443.555V37.1205H438.441V82.0001H428.919V8.01086e-05H438.441Z" fill="var(--fill-0, white)"/>
<path id="Vector_4" d="M322.372 39.942V0.969975H351.998V9.34632H331.895V31.5657H352.174V39.942H322.372ZM364.871 8.01086e-05H374.394V42.1463H364.871V8.01086e-05ZM356.495 46.9958C359.904 46.9958 362.99 47.7306 365.753 49.2001C368.516 50.6696 370.661 52.727 372.189 55.3721C373.776 58.0173 374.57 61.0445 374.57 64.4538C374.57 67.9219 373.776 70.9786 372.189 73.6237C370.661 76.2689 368.516 78.3262 365.753 79.7958C363.049 81.2653 359.963 82.0001 356.495 82.0001H342.299C338.831 82.0001 335.716 81.2653 332.953 79.7958C330.249 78.3262 328.103 76.2689 326.516 73.6237C324.988 70.9786 324.224 67.9219 324.224 64.4538C324.224 61.0445 324.988 58.0173 326.516 55.3721C328.103 52.727 330.249 50.6696 332.953 49.2001C335.716 47.7306 338.831 46.9958 342.299 46.9958H356.495ZM356.847 73.6237C359.081 73.6237 360.992 72.7714 362.579 71.0667C364.225 69.3621 365.047 67.1578 365.047 64.4538C365.047 61.6911 364.254 59.4868 362.667 57.8409C361.08 56.1951 359.14 55.3721 356.847 55.3721H341.946C339.654 55.3721 337.714 56.1951 336.127 57.8409C334.54 59.4868 333.746 61.6911 333.746 64.4538C333.746 67.1578 334.54 69.3621 336.127 71.0667C337.773 72.7714 339.713 73.6237 341.946 73.6237H356.847Z" fill="var(--fill-0, white)"/>
<path id="Vector_5" d="M289.819 50.6108H279.415V81.1184H269.892V50.6108H259.312V42.2345H289.819V50.6108ZM292.641 58.2818V8.01086e-05H302.163V82.0001H292.641V66.8345H283.206V58.2818H292.641ZM305.778 8.01086e-05H315.389V82.0001H305.778V8.01086e-05ZM278.269 16.8409C278.269 14.4309 278.239 12.8438 278.18 12.0796C278.122 11.3155 277.798 10.6101 277.211 9.96352C276.623 9.31692 275.623 8.99363 274.213 8.99363C272.802 8.99363 271.803 9.31692 271.215 9.96352C270.627 10.6101 270.304 11.3155 270.245 12.0796C270.186 12.8438 270.157 14.4309 270.157 16.8409V21.3377C270.157 23.7478 270.186 25.3348 270.245 26.099C270.304 26.8632 270.627 27.5685 271.215 28.2151C271.803 28.8617 272.802 29.185 274.213 29.185C275.623 29.185 276.623 28.8617 277.211 28.2151C277.798 27.5685 278.122 26.8632 278.18 26.099C278.239 25.3348 278.269 23.7478 278.269 21.3377V16.8409ZM260.634 15.342C260.634 10.4632 261.722 6.78933 263.897 4.32051C266.071 1.79291 269.51 0.529108 274.213 0.529108C278.915 0.529108 282.354 1.79291 284.529 4.32051C286.704 6.78933 287.791 10.4632 287.791 15.342V22.8366C287.791 27.7155 286.704 31.4187 284.529 33.9463C282.354 36.4151 278.915 37.6495 274.213 37.6495C269.51 37.6495 266.071 36.4151 263.897 33.9463C261.722 31.4187 260.634 27.7155 260.634 22.8366V15.342Z" fill="var(--fill-0, white)"/>
<path id="Vector_6" d="M235.912 47.613V82.0001H187.418V47.613H235.912ZM226.39 73.6237V55.9893H196.94V73.6237H226.39ZM204.523 16.7528C204.523 14.2252 204.112 12.2854 203.289 10.9334C202.524 9.58144 200.879 8.90546 198.351 8.90546C196.47 8.90546 195.059 9.25814 194.119 9.96352C193.237 10.6101 192.679 11.4624 192.443 12.5205C192.208 13.5786 192.091 14.9893 192.091 16.7528V23.3657C192.091 25.1291 192.208 26.5399 192.443 27.5979C192.679 28.656 193.237 29.5377 194.119 30.2431C195.059 30.8897 196.47 31.213 198.351 31.213C200.879 31.213 202.524 30.537 203.289 29.185C204.112 27.8331 204.523 25.8933 204.523 23.3657V16.7528ZM182.568 16.1356C182.568 11.2567 183.891 7.43592 186.536 4.6732C189.24 1.85169 193.178 0.440939 198.351 0.440939C203.289 0.440939 207.139 1.85169 209.901 4.6732C212.664 7.4947 214.046 11.3155 214.046 16.1356V23.9829C214.046 28.8029 212.664 32.6237 209.901 35.4452C207.139 38.2667 203.289 39.6775 198.351 39.6775C193.178 39.6775 189.24 38.2961 186.536 35.5334C183.891 32.7119 182.568 28.8617 182.568 23.9829V16.1356ZM226.39 23.8947H217.396V15.342H226.39V8.01086e-05H235.912V42.1463H226.39V23.8947Z" fill="var(--fill-0, white)"/>
<path id="Vector_7" d="M123.035 81.0302V0.969975H151.779V81.0302H123.035ZM142.256 72.6538V9.34632H132.558V72.6538H142.256ZM166.504 82.0001V8.01086e-05H176.026V82.0001H166.504Z" fill="var(--fill-0, white)"/>
<path id="Vector_8" d="M72.4949 36.7678V72.6538H92.5982V81.0302H63.0605V28.3915H82.282V9.34632H63.0605V0.969975H91.7165V36.7678H72.4949ZM105.648 82.0001V8.01086e-05H115.17V82.0001H105.648Z" fill="var(--fill-0, white)"/>
<path id="Vector_9" d="M42.7634 41.7944H51.3161V50.4352H3.87957V41.7944H12.4323V11.9922H21.8667V41.7944H33.329V11.9922H42.7634V41.7944ZM4.76129 0.970724H50.4344V9.52341H4.76129V0.970724ZM55.1957 80.9428H0V72.5664H55.1957V80.9428Z" fill="var(--fill-0, white)"/>
</g>
</svg>
