<svg width="34" height="21" viewBox="0 0 34 21" fill="none" xmlns="http://www.w3.org/2000/svg">
<path d="M33.6526 6.99477C33.6526 5.81706 32.8286 4.79823 31.6724 4.54651L11.9885 0.260945C11.2096 0.0913722 10.3968 0.171355 9.66644 0.489443L1.50877 4.0421C0.592212 4.44126 0 5.34244 0 6.33803V15.5772C0 16.9613 1.12758 18.0834 2.51852 18.0834H31.1341C32.525 18.0834 33.6526 16.9613 33.6526 15.5772V6.99477Z" fill="#FD312E"/>
<path d="M33.6526 6.99477C33.6526 5.81706 32.8286 4.79823 31.6724 4.54651L11.9885 0.260945C11.2096 0.0913722 10.3968 0.171355 9.66644 0.489443L1.50877 4.0421C0.592212 4.44126 0 5.34244 0 6.33803V15.5772C0 16.9613 1.12758 18.0834 2.51852 18.0834H31.1341C32.525 18.0834 33.6526 16.9613 33.6526 15.5772V6.99477Z" fill="url(#paint0_linear_13_18900)" fill-opacity="0.5"/>
<g clip-path="url(#clip0_13_18900)">
<path d="M7.9043 12.1201C8.63766 12.1201 8.81438 12.3215 8.81445 12.998V14.1719H4.11426V12.1201H7.9043ZM22.7451 9.98047H23.6279V10.8008H22.7451V14.0361H21.8115V7.5332H22.7451V9.98047ZM29.8623 12.8447H26.3008V13.1865C26.3008 13.2608 26.3252 13.2881 26.3945 13.2881L26.3916 13.29H30.1553L29.7852 14.0361H25.7939C25.5168 14.036 25.373 13.8928 25.373 13.6328V12.1494H28.9443V11.7061H25.416V10.9756H29.8623V12.8447ZM5.00781 13.46H7.9209V12.998C7.92081 12.863 7.87737 12.8232 7.74414 12.8232H5.00781V13.46ZM16.3408 13.333H10.084V12.502H16.7549L16.3408 13.333ZM20.7637 8.78125H18.4404V9.86914H20.5801V10.6729H18.4404V11.7988H21.3535L20.9473 12.6025H17.4961V7.97656H20.7637V8.78125ZM9.07324 9.23438H8.21387C8.31523 9.35913 8.37402 9.503 8.37402 9.6543C8.37391 10.2169 7.90972 10.644 6.93359 10.7422V11.0527H9.84863L9.48633 11.7832H3.18066V11.0527H5.99219V10.7422C5.01606 10.6413 4.55187 10.2142 4.55176 9.6543C4.55176 9.503 4.61055 9.36178 4.71191 9.23438H3.85254V8.48926H9.07324V9.23438ZM13.8604 8.4707C13.8605 9.52678 14.2559 9.91183 16.1602 10.708L15.7227 11.4961C14.1996 10.8511 13.6335 10.49 13.3721 9.96973C13.1107 10.49 12.5482 10.8485 11.0225 11.4961L10.585 10.708C12.4865 9.91183 12.8847 9.52678 12.8848 8.4707V7.85938H13.8604V8.4707ZM29.8594 10.6602H28.9258V7.5332H29.8594V10.6602ZM26.0293 7.65039C27.1068 7.65047 27.8643 8.27932 27.8643 9.12598C27.8642 9.97259 27.1068 10.6015 26.0293 10.6016C24.9517 10.6016 24.1944 9.97264 24.1943 9.12598C24.1943 8.27926 24.9517 7.65039 26.0293 7.65039ZM6.46387 9.18457C5.73084 9.18462 5.43772 9.35141 5.4375 9.61133C5.4375 9.87141 5.73057 10.0468 6.46387 10.0469C7.19739 10.0469 7.49121 9.87145 7.49121 9.61133C7.49099 9.35137 7.19712 9.18457 6.46387 9.18457ZM26.0293 8.4043C25.4746 8.4043 25.0851 8.68785 25.085 9.12305C25.085 9.55835 25.4718 9.84473 26.0293 9.84473C26.5867 9.84466 26.9736 9.56095 26.9736 9.12305C26.9735 8.68525 26.5866 8.40437 26.0293 8.4043ZM7.7207 8.14648H5.21094V7.36621H7.7207V8.14648Z" fill="white"/>
</g>
<defs>
<linearGradient id="paint0_linear_13_18900" x1="20.34" y1="16.9177" x2="20.34" y2="3.795" gradientUnits="userSpaceOnUse">
<stop stop-color="#FF441A" stop-opacity="0"/>
<stop offset="1" stop-color="#FF441A"/>
</linearGradient>
<clipPath id="clip0_13_18900">
<rect width="27.3563" height="8.75" fill="white" transform="translate(3.18066 6.39392)"/>
</clipPath>
</defs>
</svg>
