<svg width="13" height="11" viewBox="0 0 13 11" fill="none" xmlns="http://www.w3.org/2000/svg">
<path d="M0.0399997 10.16C0.84 9.68 1.56 9.01333 2.2 8.16C2.86667 7.28 3.2 6.4 3.2 5.52C3.2 5.28 3.13333 5.09333 3 4.96C2.86667 4.8 2.66667 4.72 2.4 4.72C1.73333 4.72 1.16 4.49333 0.68 4.04C0.226667 3.56 0 2.98667 0 2.32C0 1.65333 0.226667 1.10667 0.68 0.679998C1.16 0.226666 1.73333 0 2.4 0C3.33333 0 4.06667 0.346667 4.6 1.04C5.16 1.70667 5.44 2.58667 5.44 3.68C5.44 5.17333 5.02667 6.53333 4.2 7.76C3.4 8.96 2.16 9.97333 0.48 10.8L0.0399997 10.16ZM6.96 10.16C7.76 9.68 8.48 9.01333 9.12 8.16C9.78667 7.28 10.12 6.4 10.12 5.52C10.12 5.28 10.0533 5.09333 9.92 4.96C9.78667 4.8 9.58667 4.72 9.32 4.72C8.65333 4.72 8.08 4.49333 7.6 4.04C7.14667 3.56 6.92 2.98667 6.92 2.32C6.92 1.65333 7.14667 1.10667 7.6 0.679998C8.08 0.226666 8.65333 0 9.32 0C10.2533 0 10.9867 0.346667 11.52 1.04C12.08 1.70667 12.36 2.58667 12.36 3.68C12.36 5.17333 11.9467 6.53333 11.12 7.76C10.32 8.96 9.08 9.97333 7.4 10.8L6.96 10.16Z" fill="white"/>
</svg>
